<mxfile modified="2022-10-20T00:53:10.551Z" host="drawio-plugin" agent="5.0 (Windows NT 6.2; Win64; x64) AppleWebKit/537.36 (KHTML, like Gecko) Chrome/98.0.4758.102 Safari/537.36" etag="MKYLhPUDmfKKRXUsDU6V" version="15.5.4" type="embed"><diagram id="PKrw68s-FcHz-RrZCr9i" name="Page-1"><mxGraphModel dx="581" dy="507" grid="1" gridSize="10" guides="1" tooltips="1" connect="1" arrows="1" fold="1" page="1" pageScale="1" pageWidth="827" pageHeight="1169" math="0" shadow="0"><root><mxCell id="0"/><mxCell id="1" parent="0"/><mxCell id="2" value="" style="edgeStyle=orthogonalEdgeStyle;rounded=0;orthogonalLoop=1;jettySize=auto;html=1;" edge="1" parent="1" source="Gvd8Ezxa3fLg7O33Pl0G-1" target="Gvd8Ezxa3fLg7O33Pl0G-21"><mxGeometry relative="1" as="geometry"/></mxCell><mxCell id="Gvd8Ezxa3fLg7O33Pl0G-1" value="Начало" style="rounded=1;whiteSpace=wrap;html=1;arcSize=50;" parent="1" vertex="1"><mxGeometry x="290" y="100" width="140" height="60" as="geometry"/></mxCell><mxCell id="Gvd8Ezxa3fLg7O33Pl0G-6" value="precompute_rows&lt;br&gt;Вход: матрица m1 (AxB)&lt;br&gt;Выход: Предвычесленный вектор" style="text;html=1;strokeColor=none;fillColor=none;align=center;verticalAlign=middle;whiteSpace=wrap;rounded=0;" parent="1" vertex="1"><mxGeometry x="500" y="110" width="250.5" height="40" as="geometry"/></mxCell><mxCell id="3" value="" style="edgeStyle=orthogonalEdgeStyle;rounded=0;orthogonalLoop=1;jettySize=auto;html=1;" edge="1" parent="1" source="Gvd8Ezxa3fLg7O33Pl0G-21" target="Gvd8Ezxa3fLg7O33Pl0G-23"><mxGeometry relative="1" as="geometry"/></mxCell><mxCell id="Gvd8Ezxa3fLg7O33Pl0G-21" value="Цикл 1&lt;br&gt;i = 0; i &amp;lt; A; i++" style="shape=loopLimit;whiteSpace=wrap;html=1;" parent="1" vertex="1"><mxGeometry x="290" y="190" width="140" height="60" as="geometry"/></mxCell><mxCell id="6" value="" style="edgeStyle=orthogonalEdgeStyle;rounded=0;orthogonalLoop=1;jettySize=auto;html=1;entryX=0.5;entryY=0;entryDx=0;entryDy=0;" edge="1" parent="1" source="Gvd8Ezxa3fLg7O33Pl0G-23" target="Gvd8Ezxa3fLg7O33Pl0G-26"><mxGeometry relative="1" as="geometry"/></mxCell><mxCell id="Gvd8Ezxa3fLg7O33Pl0G-23" value="Цикл 2&lt;br&gt;j = 0; j &amp;lt; (B/2 -1); j++" style="shape=loopLimit;whiteSpace=wrap;html=1;" parent="1" vertex="1"><mxGeometry x="290" y="280" width="140" height="60" as="geometry"/></mxCell><mxCell id="7" value="" style="edgeStyle=orthogonalEdgeStyle;rounded=0;orthogonalLoop=1;jettySize=auto;html=1;" edge="1" parent="1" source="Gvd8Ezxa3fLg7O33Pl0G-26" target="7Xwj2gsnW8v6YeENi7_U-1"><mxGeometry relative="1" as="geometry"/></mxCell><mxCell id="Gvd8Ezxa3fLg7O33Pl0G-26" value="rows[i] = rows[i] + m1[i][2*j] * m1[i][2*j + 1] " style="rounded=0;whiteSpace=wrap;html=1;" parent="1" vertex="1"><mxGeometry x="287.5" y="370" width="145" height="50" as="geometry"/></mxCell><mxCell id="8" value="" style="edgeStyle=orthogonalEdgeStyle;rounded=0;orthogonalLoop=1;jettySize=auto;html=1;" edge="1" parent="1" source="Gvd8Ezxa3fLg7O33Pl0G-33" target="Gvd8Ezxa3fLg7O33Pl0G-37"><mxGeometry relative="1" as="geometry"/></mxCell><mxCell id="Gvd8Ezxa3fLg7O33Pl0G-33" value="Конец цикла 1" style="shape=loopLimit;whiteSpace=wrap;html=1;direction=west;" parent="1" vertex="1"><mxGeometry x="289" y="540" width="142" height="60" as="geometry"/></mxCell><mxCell id="Gvd8Ezxa3fLg7O33Pl0G-37" value="Конец" style="rounded=1;whiteSpace=wrap;html=1;arcSize=50;" parent="1" vertex="1"><mxGeometry x="300" y="630" width="120" height="60" as="geometry"/></mxCell><mxCell id="5" value="" style="edgeStyle=orthogonalEdgeStyle;rounded=0;orthogonalLoop=1;jettySize=auto;html=1;" edge="1" parent="1" source="7Xwj2gsnW8v6YeENi7_U-1" target="Gvd8Ezxa3fLg7O33Pl0G-33"><mxGeometry relative="1" as="geometry"/></mxCell><mxCell id="7Xwj2gsnW8v6YeENi7_U-1" value="Конец цикла 2" style="shape=loopLimit;whiteSpace=wrap;html=1;direction=west;" parent="1" vertex="1"><mxGeometry x="289" y="450" width="142" height="60" as="geometry"/></mxCell><mxCell id="7Xwj2gsnW8v6YeENi7_U-6" value="" style="shape=partialRectangle;whiteSpace=wrap;html=1;bottom=1;right=1;left=1;top=0;fillColor=none;routingCenterX=-0.5;rotation=90;" parent="1" vertex="1"><mxGeometry x="490" y="100" width="68" height="60" as="geometry"/></mxCell><mxCell id="7Xwj2gsnW8v6YeENi7_U-9" value="" style="endArrow=none;dashed=1;html=1;entryX=0.5;entryY=1;entryDx=0;entryDy=0;" parent="1" target="7Xwj2gsnW8v6YeENi7_U-6" edge="1"><mxGeometry width="50" height="50" relative="1" as="geometry"><mxPoint x="430" y="129.5" as="sourcePoint"/><mxPoint x="470" y="130" as="targetPoint"/></mxGeometry></mxCell><mxCell id="9" value="" style="edgeStyle=orthogonalEdgeStyle;rounded=0;orthogonalLoop=1;jettySize=auto;html=1;" edge="1" parent="1" source="7Xwj2gsnW8v6YeENi7_U-24" target="7Xwj2gsnW8v6YeENi7_U-26"><mxGeometry relative="1" as="geometry"/></mxCell><mxCell id="7Xwj2gsnW8v6YeENi7_U-24" value="Начало" style="rounded=1;whiteSpace=wrap;html=1;arcSize=50;" parent="1" vertex="1"><mxGeometry x="293.5" y="730" width="140" height="60" as="geometry"/></mxCell><mxCell id="7Xwj2gsnW8v6YeENi7_U-25" value="precompute_rows&lt;br&gt;Вход: матрица m2 (BxC)&lt;br&gt;Выход: Предвычесленный вектор" style="text;html=1;strokeColor=none;fillColor=none;align=center;verticalAlign=middle;whiteSpace=wrap;rounded=0;" parent="1" vertex="1"><mxGeometry x="503.5" y="740" width="250.5" height="40" as="geometry"/></mxCell><mxCell id="10" value="" style="edgeStyle=orthogonalEdgeStyle;rounded=0;orthogonalLoop=1;jettySize=auto;html=1;entryX=0.5;entryY=0;entryDx=0;entryDy=0;" edge="1" parent="1" source="7Xwj2gsnW8v6YeENi7_U-26" target="7Xwj2gsnW8v6YeENi7_U-27"><mxGeometry relative="1" as="geometry"/></mxCell><mxCell id="7Xwj2gsnW8v6YeENi7_U-26" value="Цикл 1&lt;br&gt;i = 1; i &amp;lt;=C; i = i+1" style="shape=loopLimit;whiteSpace=wrap;html=1;" parent="1" vertex="1"><mxGeometry x="293.5" y="820" width="140" height="60" as="geometry"/></mxCell><mxCell id="11" value="" style="edgeStyle=orthogonalEdgeStyle;rounded=0;orthogonalLoop=1;jettySize=auto;html=1;entryX=0.5;entryY=0;entryDx=0;entryDy=0;" edge="1" parent="1" source="7Xwj2gsnW8v6YeENi7_U-27" target="7Xwj2gsnW8v6YeENi7_U-29"><mxGeometry relative="1" as="geometry"/></mxCell><mxCell id="7Xwj2gsnW8v6YeENi7_U-27" value="Цикл 2&lt;br&gt;j = 1; j &amp;lt;=B; j = j+2" style="shape=loopLimit;whiteSpace=wrap;html=1;" parent="1" vertex="1"><mxGeometry x="293.5" y="910" width="140" height="60" as="geometry"/></mxCell><mxCell id="12" value="" style="edgeStyle=orthogonalEdgeStyle;rounded=0;orthogonalLoop=1;jettySize=auto;html=1;" edge="1" parent="1" source="7Xwj2gsnW8v6YeENi7_U-29" target="7Xwj2gsnW8v6YeENi7_U-36"><mxGeometry relative="1" as="geometry"/></mxCell><mxCell id="7Xwj2gsnW8v6YeENi7_U-29" value="cols[i] -= m2[j][i] * m2[j + 1][i] " style="rounded=0;whiteSpace=wrap;html=1;" parent="1" vertex="1"><mxGeometry x="291" y="1000" width="145" height="50" as="geometry"/></mxCell><mxCell id="14" value="" style="edgeStyle=orthogonalEdgeStyle;rounded=0;orthogonalLoop=1;jettySize=auto;html=1;" edge="1" parent="1" source="7Xwj2gsnW8v6YeENi7_U-31" target="7Xwj2gsnW8v6YeENi7_U-35"><mxGeometry relative="1" as="geometry"/></mxCell><mxCell id="7Xwj2gsnW8v6YeENi7_U-31" value="Конец цикла 1" style="shape=loopLimit;whiteSpace=wrap;html=1;direction=west;" parent="1" vertex="1"><mxGeometry x="292.5" y="1169" width="142" height="60" as="geometry"/></mxCell><mxCell id="7Xwj2gsnW8v6YeENi7_U-35" value="Конец" style="rounded=1;whiteSpace=wrap;html=1;arcSize=50;" parent="1" vertex="1"><mxGeometry x="303.5" y="1260" width="120" height="60" as="geometry"/></mxCell><mxCell id="13" value="" style="edgeStyle=orthogonalEdgeStyle;rounded=0;orthogonalLoop=1;jettySize=auto;html=1;" edge="1" parent="1" source="7Xwj2gsnW8v6YeENi7_U-36" target="7Xwj2gsnW8v6YeENi7_U-31"><mxGeometry relative="1" as="geometry"/></mxCell><mxCell id="7Xwj2gsnW8v6YeENi7_U-36" value="Конец цикла 2" style="shape=loopLimit;whiteSpace=wrap;html=1;direction=west;" parent="1" vertex="1"><mxGeometry x="292.5" y="1080" width="142" height="60" as="geometry"/></mxCell><mxCell id="7Xwj2gsnW8v6YeENi7_U-37" value="" style="shape=partialRectangle;whiteSpace=wrap;html=1;bottom=1;right=1;left=1;top=0;fillColor=none;routingCenterX=-0.5;rotation=90;" parent="1" vertex="1"><mxGeometry x="493.5" y="730" width="68" height="60" as="geometry"/></mxCell><mxCell id="7Xwj2gsnW8v6YeENi7_U-38" value="" style="endArrow=none;dashed=1;html=1;entryX=0.5;entryY=1;entryDx=0;entryDy=0;" parent="1" target="7Xwj2gsnW8v6YeENi7_U-37" edge="1"><mxGeometry width="50" height="50" relative="1" as="geometry"><mxPoint x="433.5" y="759.5" as="sourcePoint"/><mxPoint x="473.5" y="760" as="targetPoint"/></mxGeometry></mxCell></root></mxGraphModel></diagram></mxfile>